<svg width="1200" height="630" viewBox="0 0 1200 630" fill="none" xmlns="http://www.w3.org/2000/svg">
  <defs>
    <linearGradient id="bg" x1="0" y1="0" x2="1200" y2="630" gradientUnits="userSpaceOnUse">
      <stop stop-color="#0A0B0F"/>
      <stop offset="1" stop-color="#161A22"/>
    </linearGradient>
    <linearGradient id="gold" x1="850" y1="148" x2="1100" y2="390" gradientUnits="userSpaceOnUse">
      <stop stop-color="#F7C35F"/>
      <stop offset="1" stop-color="#A97820"/>
    </linearGradient>
  </defs>
  <rect width="1200" height="630" fill="url(#bg)"/>
  <circle cx="1030" cy="270" r="180" fill="#1E2431" fill-opacity="0.6"/>
  <rect x="110" y="120" width="710" height="390" rx="20" fill="#111621" stroke="#2A3142"/>
  <text x="160" y="210" fill="#F7C35F" font-family="Arial, Helvetica, sans-serif" font-size="52" font-weight="700">
    CHEVY BOWTIE
  </text>
  <text x="160" y="274" fill="#FFFFFF" font-family="Arial, Helvetica, sans-serif" font-size="52" font-weight="700">
    SIZE &amp; FITMENT PDF
  </text>
  <text x="160" y="330" fill="#B8C0D4" font-family="Arial, Helvetica, sans-serif" font-size="30">
    Printable 2026 Reference Guide
  </text>
  <rect x="160" y="370" width="255" height="52" rx="26" fill="#20293A"/>
  <text x="190" y="404" fill="#F7C35F" font-family="Arial, Helvetica, sans-serif" font-size="22" font-weight="700">
    INSTALL CHECKLIST
  </text>
  <rect x="430" y="370" width="285" height="52" rx="26" fill="#20293A"/>
  <text x="460" y="404" fill="#F7C35F" font-family="Arial, Helvetica, sans-serif" font-size="22" font-weight="700">
    YEAR-BY-YEAR FITMENT
  </text>
  <g>
    <path d="M842 252L920 210H1090L1012 252H842Z" fill="url(#gold)"/>
    <path d="M842 252L920 294H1090L1012 252H842Z" fill="#7C5A1D"/>
    <path d="M1012 252L1090 210V294L1012 252Z" fill="#E0B252"/>
  </g>
</svg>
